HIERARCHY
ROOT Hips
{
  OFFSET -187.679 86.5976 -156.378
  CHANNELS 6 Xposition Yposition Zposition Zrotation Xrotation Yrotation
  JOINT LeftUpLeg
  {
    OFFSET 8.64259 1.95398 -2.38835
    CHANNELS 3 Zrotation Xrotation Yrotation
    JOINT LeftLeg
    {
      OFFSET 43.7702 0 0
      CHANNELS 3 Zrotation Xrotation Yrotation
      JOINT LeftFoot
      {
        OFFSET 40.6238 0 0
        CHANNELS 3 Zrotation Xrotation Yrotation
        JOINT LeftToeBase
        {
          OFFSET 12.7242 0 0
          CHANNELS 3 Zrotation Xrotation Yrotation
          End Site
          {
            OFFSET 0 0 0
          }
        }
      }
    }
  }
  JOINT RightUpLeg
  {
    OFFSET -8.2249 1.95398 -2.59336
    CHANNELS 3 Zrotation Xrotation Yrotation
    JOINT RightLeg
    {
      OFFSET 43.5653 0 0
      CHANNELS 3 Zrotation Xrotation Yrotation
      JOINT RightFoot
      {
        OFFSET 40.6238 0 0
        CHANNELS 3 Zrotation Xrotation Yrotation
        JOINT RightToeBase
        {
          OFFSET 12.7242 0 0
          CHANNELS 3 Zrotation Xrotation Yrotation
          End Site
          {
            OFFSET 0 0 0
          }
        }
      }
    }
  }
  JOINT Spine
  {
    OFFSET 0.165834 0.87714 6.61349
    CHANNELS 3 Zrotation Xrotation Yrotation
    JOINT Spine1
    {
      OFFSET 7.38963 1.71661e-005 0
      CHANNELS 3 Zrotation Xrotation Yrotation
      JOINT Spine2
      {
        OFFSET 11.9445 1.14441e-005 0
        CHANNELS 3 Zrotation Xrotation Yrotation
        JOINT Spine3
        {
          OFFSET 14.7254 4.19617e-005 0
          CHANNELS 3 Zrotation Xrotation Yrotation
          JOINT Spine4
          {
            OFFSET 10.9679 0 0
            CHANNELS 3 Zrotation Xrotation Yrotation
            JOINT RightShoulder
            {
              OFFSET 2.46616 -1.6653 3.69651
              CHANNELS 3 Zrotation Xrotation Yrotation
              JOINT RightArm
              {
                OFFSET 13.0012 0 0
                CHANNELS 3 Zrotation Xrotation Yrotation
                JOINT RightForeArm
                {
                  OFFSET 28.7848 1.52588e-005 0
                  CHANNELS 3 Zrotation Xrotation Yrotation
                  JOINT RightHand
                  {
                    OFFSET 26.5688 1.52588e-005 0
                    CHANNELS 3 Zrotation Xrotation Yrotation
                    End Site
                    {
                      OFFSET 0 0 0
                    }
                  }
                }
              }
            }
            JOINT LeftShoulder
            {
              OFFSET 2.38034 -1.29275 -3.7523
              CHANNELS 3 Zrotation Xrotation Yrotation
              JOINT LeftArm
              {
                OFFSET 16.3182 6.10352e-005 0
                CHANNELS 3 Zrotation Xrotation Yrotation
                JOINT LeftForeArm
                {
                  OFFSET 27.0901 0 0
                  CHANNELS 3 Zrotation Xrotation Yrotation
                  JOINT LeftHand
                  {
                    OFFSET 24.5451 1.52588e-005 0
                    CHANNELS 3 Zrotation Xrotation Yrotation
                    End Site
                    {
                      OFFSET 0 0 0
                    }
                  }
                }
              }
            }
            JOINT Neck
            {
              OFFSET 5.0226 -0.0266342 0
              CHANNELS 3 Zrotation Xrotation Yrotation
              JOINT Head
              {
                OFFSET 6.69363 2.86102e-005 0
                CHANNELS 3 Zrotation Xrotation Yrotation
                End Site
                {
                  OFFSET 0 0 0
                }
              }
            }
          }
        }
      }
    }
  }
}
MOTION
Frames:	15
Frame Time:	0.0416667
28.3106 100.138 20.4715 16.6603 -71.3921 12.7232 179.147 28.5996 87.2036 -18.3825 23.5959 8.09752 67.4988 3.23549 -3.0746 12.8674 -8.6573 4.37436 176.497 26.0447 89.0705 -14.5186 2.47922 2.23459 66.3033 -2.03092 -4.6174 18.926 -1.99063 1.14943 0.324771 8.92576 -90.5827 9.02296 0.387724 -1.18075 -2.64847 0.33538 -1.19666 -25.1807 0.724645 -1.00967 -5.16811 0.724639 -1.00967 82.0143 -47.8307 -113.486 -3.30647 -20.4107 -46.7257 -15.6462 -18.4656 -17.2502 -9.10714 -0.0442646 -4.66862 -94.8827 -40.8437 68.7721 7.00213 34.8686 -65.0478 4.91383 -3.64382 -11.9488 -2.35852 -0.086809 -4.81576 15.3362 25.5095 13.5246 9.95357 21.3336 1.37492 
28.6003 100.256 20.567 19.5116 -71.6579 15.6854 178.973 27.3265 86.7707 -17.1734 24.37 8.79678 66.9117 2.88382 -3.34455 13.0738 -8.86169 4.96227 176.261 25.2444 88.8541 -14.2663 3.35433 2.40083 66.1407 -2.05793 -4.2415 19.1945 -1.87609 0.97098 0.313275 9.0191 -90.6755 8.83573 0.324574 -1.35846 -2.8359 0.264487 -1.37142 -25.3667 0.717817 -1.19813 -5.35407 0.717816 -1.19815 81.992 -47.4631 -113.662 -1.94752 -19.352 -44.1498 -15.9582 -18.6672 -17.3223 -10.7551 -0.205419 -2.86981 -94.5228 -40.1895 69.1268 6.38835 35.1135 -62.2235 4.24572 -3.79869 -9.6526 -2.18067 -0.0906186 -4.85506 12.8362 24.3525 10.4317 9.68465 21.2715 1.55233 
28.8143 100.297 20.8081 24.0293 -71.9165 20.2725 178.939 26.3864 86.3894 -17.0665 25.5059 9.18262 66.8805 2.87877 -3.35619 12.9761 -8.75918 4.67288 176.073 24.3358 88.6437 -14.5013 4.40564 2.46597 66.3969 -2.05928 -4.21232 19.4192 -1.77349 0.803141 0.286782 8.98893 -90.771 8.89514 0.228802 -1.54164 -2.77671 0.160745 -1.55021 -25.3057 0.681508 -1.40166 -5.29307 0.681506 -1.40165 81.9385 -47.5599 -113.706 -2.94267 -21.4847 -41.6823 -13.532 -16.0094 -13.9311 -11.2487 -0.0157722 -5.03227 -94.8656 -41.2043 68.927 6.1585 35.2856 -59.002 3.498 -3.85943 -6.77627 -2.58095 -0.096516 -3.90363 10.3667 22.4818 7.16595 9.79888 20.4153 1.52732 
28.9297 100.403 21.1695 27.485 -72.7265 24.0272 179.244 25.394 86.4663 -17.9445 26.7138 9.23775 67.1327 3.07917 -2.99412 12.7321 -8.98524 4.87944 176.034 22.6424 88.8612 -14.2566 5.11293 2.42327 66.2216 -2.02921 -3.80957 19.7912 -1.34492 -0.175965 0.308535 8.98446 -90.8485 8.90353 0.23763 -1.69575 -2.76852 0.162781 -1.70456 -25.2962 0.736225 -1.54599 -5.2835 0.736226 -1.54601 81.8456 -48.1441 -113.622 -2.63084 -22.4224 -39.1113 -12.3825 -17.1965 -11.8644 -12.6862 -0.0855772 -4.34939 -94.6722 -41.5207 69.3493 4.49658 34.8155 -55.5854 3.66919 -2.80192 -5.76539 -3.17548 -0.0968993 -2.91747 9.10343 21.099 4.6843 9.91974 19.7476 2.13059 
29.1006 100.509 21.5994 33.3844 -73.084 30.2445 179.522 24.6105 86.5702 -19.0469 28.1043 9.14182 67.539 3.26238 -3.10554 12.5121 -8.73771 4.20064 175.891 20.8466 88.952 -13.9575 6.5022 2.51239 66.3109 -2.07528 -3.64927 20.041 -1.1206 -0.67139 0.291502 8.94422 -90.9786 8.98265 0.145032 -1.94737 -2.68977 0.0591967 -1.95189 -25.2145 0.723495 -1.81385 -5.20182 0.723495 -1.81386 82.4039 -48.3951 -112.681 -1.58952 -23.278 -36.8606 -12.1268 -16.8637 -11.5291 -11.5909 -0.0229081 -4.94529 -94.6789 -41.9312 69.4798 3.92598 34.6428 -53.7282 4.41109 -2.88313 -7.35167 -1.64886 -0.0811293 -3.29683 7.9323 19.9989 3.68191 9.94207 18.8983 1.65812 
29.2033 100.538 22.1367 42.7425 -73.3817 39.8241 -179.706 23.8061 86.7887 -21.3727 31.0367 8.4362 68.2216 3.7589 -2.46852 11.9989 -8.81664 3.88166 175.562 18.4219 88.9471 -14.0993 8.38669 2.7495 66.8599 -2.14847 -3.355 20.2276 -0.979275 -0.97642 0.280211 8.92697 -91.0879 9.01541 0.0734876 -2.15908 -2.65732 -0.021582 -2.16021 -25.1793 0.71884 -2.03727 -5.16663 0.718851 -2.03727 81.1722 -48.8863 -114.35 -0.426739 -23.4033 -32.5471 -13.4327 -17.3887 -13.3555 -10.1137 -0.0356912 -4.81276 -94.6166 -41.643 69.4812 3.22699 34.9609 -54.2338 4.72199 -2.62429 -8.44831 -1.80731 -0.0823671 -3.4905 7.32248 18.6303 1.91487 10.0802 17.8034 0.37161 
29.4046 100.478 22.6869 51.5449 -73.3792 48.6993 -179.286 22.9776 86.9484 -23.6668 33.2465 7.95882 69.0076 4.3269 -1.94539 11.8655 -8.72755 3.59176 174.95 16.4723 88.7685 -15.1538 9.68321 3.2294 68.0173 -2.35509 -3.42081 20.1728 -1.09661 -0.68142 0.245511 8.85468 -91.1472 9.15884 -0.0236933 -2.27056 -2.51409 -0.123577 -2.26733 -25.0343 0.659632 -2.17281 -5.02165 0.659632 -2.17281 80.5721 -49.6571 -114.943 -0.390078 -24.0544 -31.2934 -12.9147 -16.5258 -12.7291 -10.7791 -0.0669775 -4.45764 -94.5227 -41.755 69.6708 2.2381 35.9195 -54.5953 5.40403 -3.20187 -11.3483 -0.760521 -0.0675966 -2.79891 7.44118 16.5382 -1.19436 9.33892 16.4607 1.1732 
29.5222 100.427 23.3264 59.2252 -73.4327 56.7307 -178.867 22.1497 87.5055 -26.1976 34.7673 7.71914 69.9824 4.90043 -1.76359 11.4982 -8.52391 2.87904 174.739 14.1023 89.0532 -15.4658 11.1152 3.46619 68.6936 -2.49987 -3.24696 20.5426 -1.05622 -0.636381 0.240343 8.75582 -91.231 9.35506 -0.0736564 -2.43396 -2.31817 -0.180666 -2.42837 -24.836 0.661059 -2.34368 -4.82331 0.66105 -2.34369 80.2386 -49.8446 -115.363 0.101782 -24.434 -30.7952 -13.0625 -17.2441 -12.9612 -9.98361 -0.0152005 -5.03502 -94.9182 -42.5612 69.3126 0.804708 37.1487 -55.1596 6.17647 -1.82238 -13.1936 -1.151 -0.0709179 -2.6949 7.20104 14.8732 -3.06611 8.86448 15.2389 1.45309 
29.7139 100.351 23.9926 65.864 -73.2287 63.8797 -178.473 21.4399 88.173 -28.6878 36.2481 7.69738 70.8744 5.33073 -1.80939 11.4508 -8.52504 2.83932 174.73 11.9586 89.5534 -15.6954 12.2504 3.57231 69.2839 -2.61583 -3.41118 20.6715 -1.07893 -0.519852 0.212774 8.63885 -91.289 9.58725 -0.157349 -2.54372 -2.08615 -0.269115 -2.53434 -24.6021 0.614168 -2.47351 -4.58944 0.614171 -2.47351 78.6912 -51.7252 -116.867 -1.61257 -24.8884 -30.736 -13.218 -14.2978 -13.8673 -8.81568 0.0865323 -6.4853 -94.7835 -42.4832 69.5009 -3.56794 38.1233 -53.69 7.071 -1.08346 -14.4235 -2.54951 -0.0890667 -2.69393 7.297 13.3865 -5.98389 8.26306 14.4895 2.73527 
29.9386 100.319 24.6318 71.0359 -73.5481 69.3896 -177.968 20.4139 88.6915 -30.4284 37.0524 7.618 71.5325 5.77035 -1.28006 11.285 -8.30579 2.28071 174.676 9.9765 89.9035 -15.91 12.8248 3.63723 69.5907 -2.63706 -2.89252 21.1837 -0.729749 -1.27053 0.206833 8.55677 -91.3787 9.75029 -0.211652 -2.71707 -1.92347 -0.330976 -2.70515 -24.4366 0.614425 -2.65519 -4.42396 0.614438 -2.65519 78.1155 -52.0623 -117.556 -2.38253 -25.0859 -30.7001 -14.6632 -15.7059 -16.5483 -10.274 -0.141648 -3.55418 -94.5306 -43.1886 70.1376 -9.68545 36.7332 -49.6983 7.85318 -0.168553 -13.8964 -3.67838 -0.109622 -2.25282 7.19166 11.8262 -7.10634 7.84952 13.1662 2.507 
30.0945 100.237 25.2371 73.4493 -73.4892 72.1559 -177.58 20.0554 89.2125 -31.7464 37.7293 7.5533 72.4287 6.16733 -1.2247 10.769 -8.39182 1.99523 174.793 8.90559 90.2977 -15.9924 13.4091 3.63807 70.1109 -2.78142 -3.06339 21.1101 -0.912655 -0.790616 0.21718 8.37244 -91.5495 10.1147 -0.273258 -3.05387 -1.55981 -0.40734 -3.03893 -24.0669 0.656759 -2.99496 -4.0543 0.656758 -2.99497 77.2354 -52.6027 -118.587 -4.35732 -25.7335 -29.3119 -15.9686 -15.3464 -19.3486 -10.2535 -0.136458 -3.77332 -94.4173 -43.919 70.5573 -10.7631 36.627 -47.9969 7.29234 -0.175232 -11.744 -2.34935 -0.107722 -1.88592 6.14146 10.5834 -8.04547 8.05183 12.0809 2.36616 
30.4713 100.25 25.8591 77.746 -73.1665 76.3833 -177.382 18.889 89.1886 -32.547 38.347 7.69168 72.918 6.32676 -1.38926 10.259 -8.46629 1.69995 174.38 7.27231 90.0156 -16.116 13.6262 3.9171 70.3734 -2.81192 -2.78686 21.4604 -0.693095 -1.26162 0.182317 8.30651 -91.6996 10.243 -0.413058 -3.34015 -1.43213 -0.559574 -3.31878 -23.9335 0.609314 -3.31002 -3.92084 0.609316 -3.31001 77.0603 -53.0697 -118.64 -5.32741 -25.3567 -27.7815 -16.108 -15.3988 -19.5911 -8.93166 -0.0545364 -4.50847 -93.789 -43.2988 71.3504 -9.74943 37.2368 -47.3978 6.29185 -1.35023 -9.91725 -0.781128 -0.0777935 -3.74541 5.72262 9.22754 -10.7682 8.01022 11.3443 3.40836 
30.7791 100.207 26.4206 80.0527 -72.5481 78.6559 -177.174 18.3573 89.2057 -33.2741 39.3198 7.65187 73.3202 6.61059 -0.982528 10.2161 -8.37239 1.48915 174.345 6.31322 89.9443 -16.178 14.6012 3.87328 70.9539 -2.91065 -2.70855 21.221 -0.886447 -0.819198 0.0514541 8.15745 -91.7914 10.5345 -0.720196 -3.49579 -1.1408 -0.873267 -3.46078 -23.6383 0.363014 -3.55064 -3.62568 0.363016 -3.55064 74.4778 -54.2028 -121.757 -6.08778 -24.487 -23.4475 -16.095 -14.7382 -19.1414 -10.3885 -0.111748 -3.91025 -93.2443 -42.7592 72.0487 -10.284 38.0073 -43.9603 6.87949 0.741489 -10.6553 -2.27614 -0.0855761 -2.79049 5.29688 8.28526 -13.9794 7.9375 11.0051 3.63354 
30.8747 100.23 27.3334 83.0899 -73.4381 81.9011 -176.713 16.943 89.7971 -33.8068 38.7798 7.63495 74.0787 6.79722 -1.54832 10.206 -8.5077 1.73026 174.523 4.60071 90.3969 -15.9898 14.2706 3.65849 70.8795 -2.97379 -2.24299 21.7763 -0.456943 -1.79786 0.0721727 8.10959 -91.8254 10.6298 -0.696016 -3.56558 -1.04571 -0.852166 -3.53156 -23.5418 0.407015 -3.60995 -3.52912 0.407017 -3.60995 74.238 -54.6524 -121.888 -5.39349 -25.7609 -19.8451 -15.6561 -13.3698 -18.7524 -8.54119 -0.0652606 -4.39001 -92.5997 -42.2864 72.9386 -10.9531 39.4876 -41.4967 6.55481 0.417187 -10.4219 -2.29777 -0.0859998 -3.07944 5.54578 6.9187 -17.8191 7.90845 10.4469 3.88032 
30.8924 100.141 28.3001 86.927 -74.3351 86.119 -176.1 15.8137 90.6333 -35.2104 38.7287 7.54421 74.9685 7.32337 -1.1419 10.2799 -8.15553 1.14035 174.743 2.95797 90.906 -16.3018 14.0093 3.50465 71.3053 -3.06789 -2.10665 22.0509 -0.366658 -1.9457 0.0620144 7.99883 -91.8395 10.8504 -0.72609 -3.59029 -0.825249 -0.883295 -3.55493 -23.3207 0.385735 -3.64254 -3.30805 0.385735 -3.64254 75.5283 -54.6754 -120.101 -3.01719 -26.3876 -15.3666 -16.0106 -13.2937 -19.5567 -10.0022 -0.107042 -3.95133 -91.9793 -42.4322 73.9819 -17.7985 37.9252 -35.0033 7.39288 0.535813 -10.7649 -2.76953 -0.0849777 -3.2525 5.6494 5.51116 -21.425 7.32016 9.71904 3.52205 
